<?xml version="1.0" encoding="utf-8" standalone="no"?>
<!DOCTYPE svg PUBLIC "-//W3C//DTD SVG 1.1//EN"
  "http://www.w3.org/Graphics/SVG/1.1/DTD/svg11.dtd">
<svg xmlns:xlink="http://www.w3.org/1999/xlink" width="517.758965pt" height="270.951849pt" viewBox="0 0 517.758965 270.951849" xmlns="http://www.w3.org/2000/svg" version="1.1">
 <metadata>
  <rdf:RDF xmlns:dc="http://purl.org/dc/elements/1.1/" xmlns:cc="http://creativecommons.org/ns#" xmlns:rdf="http://www.w3.org/1999/02/22-rdf-syntax-ns#">
   <cc:Work>
    <dc:type rdf:resource="http://purl.org/dc/dcmitype/StillImage"/>
    <dc:date>2026-06-28T00:27:52.001095</dc:date>
    <dc:format>image/svg+xml</dc:format>
    <dc:creator>
     <cc:Agent>
      <dc:title>Matplotlib v3.11.0, https://matplotlib.org/</dc:title>
     </cc:Agent>
    </dc:creator>
   </cc:Work>
  </rdf:RDF>
 </metadata>
 <defs>
  <style type="text/css">*{stroke-linejoin: round; stroke-linecap: butt}</style>
 </defs>
 <g id="figure_1">
  <g id="patch_1">
   <path d="M 0 270.951849 
L 517.758965 270.951849 
L 517.758965 0 
L 0 0 
z
" style="fill: #ffffff"/>
  </g>
  <g id="axes_1">
   <g id="patch_2">
    <path d="M 33.804473 240.078314 
L 499.715137 240.078314 
L 499.715137 43.208117 
L 33.804473 43.208117 
z
" style="fill: #ffffff"/>
   </g>
   <g id="FillBetweenPolyCollection_1">
    <defs>
     <path id="mf3eacbdeb0" d="M 33.804473 -30.873535 
L 33.804473 -30.873535 
L 49.334828 -30.873535 
L 64.865184 -30.873535 
L 80.395539 -30.873535 
L 95.925895 -30.873535 
L 111.45625 -30.873535 
L 126.986605 -30.873535 
L 142.516961 -30.873535 
L 158.047316 -30.873535 
L 173.577672 -31.188527 
L 189.108027 -31.542894 
L 204.638383 -33.039107 
L 220.168738 -36.031534 
L 235.699094 -40.008312 
L 251.229449 -46.03254 
L 266.759805 -52.489883 
L 282.29016 -59.892202 
L 297.820516 -68.515117 
L 313.350871 -80.05171 
L 328.881227 -91.588304 
L 344.411582 -103.24302 
L 359.941937 -113.992132 
L 375.472293 -123.993138 
L 391.002648 -133.246038 
L 406.533004 -143.877028 
L 422.063359 -152.106203 
L 437.593715 -160.453499 
L 453.12407 -168.013315 
L 468.654426 -174.667527 
L 484.184781 -180.809877 
L 499.715137 -185.495388 
L 499.715137 -30.873535 
L 499.715137 -30.873535 
L 484.184781 -30.873535 
L 468.654426 -30.873535 
L 453.12407 -30.873535 
L 437.593715 -30.873535 
L 422.063359 -30.873535 
L 406.533004 -30.873535 
L 391.002648 -30.873535 
L 375.472293 -30.873535 
L 359.941937 -30.873535 
L 344.411582 -30.873535 
L 328.881227 -30.873535 
L 313.350871 -30.873535 
L 297.820516 -30.873535 
L 282.29016 -30.873535 
L 266.759805 -30.873535 
L 251.229449 -30.873535 
L 235.699094 -30.873535 
L 220.168738 -30.873535 
L 204.638383 -30.873535 
L 189.108027 -30.873535 
L 173.577672 -30.873535 
L 158.047316 -30.873535 
L 142.516961 -30.873535 
L 126.986605 -30.873535 
L 111.45625 -30.873535 
L 95.925895 -30.873535 
L 80.395539 -30.873535 
L 64.865184 -30.873535 
L 49.334828 -30.873535 
L 33.804473 -30.873535 
z
" style="stroke: #dcebfa; stroke-opacity: 0.7"/>
    </defs>
    <g clip-path="url(#pe09223fb27)">
     <use xlink:href="#mf3eacbdeb0" x="0" y="270.951849" style="fill: #dcebfa; fill-opacity: 0.7; stroke: #dcebfa; stroke-opacity: 0.7"/>
    </g>
   </g>
   <g id="matplotlib.axis_1">
    <g id="xtick_1">
     <g id="line2d_1">
      <defs>
       <path id="m54a06906aa" d="M 0 0 
L 0 3.5 
" style="stroke: #000000; stroke-width: 0.8"/>
      </defs>
      <g>
       <use xlink:href="#m54a06906aa" x="33.804473" y="240.078314" style="stroke: #000000; stroke-width: 0.8"/>
      </g>
     </g>
     <g id="text_1">
      <text style="font-size: 6.5px; font-family: 'Arial', 'Helvetica', 'DejaVu Sans', sans-serif; text-anchor: middle" x="33.804473" y="251.810492" transform="rotate(-0 33.804473 251.810492)">0</text>
     </g>
    </g>
    <g id="xtick_2">
     <g id="line2d_2">
      <g>
       <use xlink:href="#m54a06906aa" x="111.45625" y="240.078314" style="stroke: #000000; stroke-width: 0.8"/>
      </g>
     </g>
     <g id="text_2">
      <text style="font-size: 6.5px; font-family: 'Arial', 'Helvetica', 'DejaVu Sans', sans-serif; text-anchor: middle" x="111.45625" y="251.810492" transform="rotate(-0 111.45625 251.810492)">50000</text>
     </g>
    </g>
    <g id="xtick_3">
     <g id="line2d_3">
      <g>
       <use xlink:href="#m54a06906aa" x="189.108027" y="240.078314" style="stroke: #000000; stroke-width: 0.8"/>
      </g>
     </g>
     <g id="text_3">
      <text style="font-size: 6.5px; font-family: 'Arial', 'Helvetica', 'DejaVu Sans', sans-serif; text-anchor: middle" x="189.108027" y="251.810492" transform="rotate(-0 189.108027 251.810492)">100000</text>
     </g>
    </g>
    <g id="xtick_4">
     <g id="line2d_4">
      <g>
       <use xlink:href="#m54a06906aa" x="266.759805" y="240.078314" style="stroke: #000000; stroke-width: 0.8"/>
      </g>
     </g>
     <g id="text_4">
      <text style="font-size: 6.5px; font-family: 'Arial', 'Helvetica', 'DejaVu Sans', sans-serif; text-anchor: middle" x="266.759805" y="251.810492" transform="rotate(-0 266.759805 251.810492)">150000</text>
     </g>
    </g>
    <g id="xtick_5">
     <g id="line2d_5">
      <g>
       <use xlink:href="#m54a06906aa" x="344.411582" y="240.078314" style="stroke: #000000; stroke-width: 0.8"/>
      </g>
     </g>
     <g id="text_5">
      <text style="font-size: 6.5px; font-family: 'Arial', 'Helvetica', 'DejaVu Sans', sans-serif; text-anchor: middle" x="344.411582" y="251.810492" transform="rotate(-0 344.411582 251.810492)">200000</text>
     </g>
    </g>
    <g id="xtick_6">
     <g id="line2d_6">
      <g>
       <use xlink:href="#m54a06906aa" x="422.063359" y="240.078314" style="stroke: #000000; stroke-width: 0.8"/>
      </g>
     </g>
     <g id="text_6">
      <text style="font-size: 6.5px; font-family: 'Arial', 'Helvetica', 'DejaVu Sans', sans-serif; text-anchor: middle" x="422.063359" y="251.810492" transform="rotate(-0 422.063359 251.810492)">250000</text>
     </g>
    </g>
    <g id="xtick_7">
     <g id="line2d_7">
      <g>
       <use xlink:href="#m54a06906aa" x="499.715137" y="240.078314" style="stroke: #000000; stroke-width: 0.8"/>
      </g>
     </g>
     <g id="text_7">
      <text style="font-size: 6.5px; font-family: 'Arial', 'Helvetica', 'DejaVu Sans', sans-serif; text-anchor: middle" x="499.715137" y="251.810492" transform="rotate(-0 499.715137 251.810492)">300000</text>
     </g>
    </g>
    <g id="text_8">
     <text style="font-size: 7px; font-family: 'Arial', 'Helvetica', 'DejaVu Sans', sans-serif; text-anchor: middle" x="266.759805" y="262.278568" transform="rotate(-0 266.759805 262.278568)">Willingness-to-pay threshold (2022 CAD per QALY)</text>
    </g>
   </g>
   <g id="matplotlib.axis_2">
    <g id="ytick_1">
     <g id="line2d_8">
      <defs>
       <path id="m9d378d5bc8" d="M 0 0 
L -3.5 0 
" style="stroke: #000000; stroke-width: 0.8"/>
      </defs>
      <g>
       <use xlink:href="#m9d378d5bc8" x="33.804473" y="240.078314" style="stroke: #000000; stroke-width: 0.8"/>
      </g>
     </g>
     <g id="text_9">
      <text style="font-size: 6.5px; font-family: 'Arial', 'Helvetica', 'DejaVu Sans', sans-serif; text-anchor: end" x="26.804473" y="242.444403" transform="rotate(-0 26.804473 242.444403)">0.0</text>
     </g>
    </g>
    <g id="ytick_2">
     <g id="line2d_9">
      <g>
       <use xlink:href="#m9d378d5bc8" x="33.804473" y="200.704275" style="stroke: #000000; stroke-width: 0.8"/>
      </g>
     </g>
     <g id="text_10">
      <text style="font-size: 6.5px; font-family: 'Arial', 'Helvetica', 'DejaVu Sans', sans-serif; text-anchor: end" x="26.804473" y="203.070363" transform="rotate(-0 26.804473 203.070363)">0.2</text>
     </g>
    </g>
    <g id="ytick_3">
     <g id="line2d_10">
      <g>
       <use xlink:href="#m9d378d5bc8" x="33.804473" y="161.330235" style="stroke: #000000; stroke-width: 0.8"/>
      </g>
     </g>
     <g id="text_11">
      <text style="font-size: 6.5px; font-family: 'Arial', 'Helvetica', 'DejaVu Sans', sans-serif; text-anchor: end" x="26.804473" y="163.696324" transform="rotate(-0 26.804473 163.696324)">0.4</text>
     </g>
    </g>
    <g id="ytick_4">
     <g id="line2d_11">
      <g>
       <use xlink:href="#m9d378d5bc8" x="33.804473" y="121.956196" style="stroke: #000000; stroke-width: 0.8"/>
      </g>
     </g>
     <g id="text_12">
      <text style="font-size: 6.5px; font-family: 'Arial', 'Helvetica', 'DejaVu Sans', sans-serif; text-anchor: end" x="26.804473" y="124.322284" transform="rotate(-0 26.804473 124.322284)">0.6</text>
     </g>
    </g>
    <g id="ytick_5">
     <g id="line2d_12">
      <g>
       <use xlink:href="#m9d378d5bc8" x="33.804473" y="82.582156" style="stroke: #000000; stroke-width: 0.8"/>
      </g>
     </g>
     <g id="text_13">
      <text style="font-size: 6.5px; font-family: 'Arial', 'Helvetica', 'DejaVu Sans', sans-serif; text-anchor: end" x="26.804473" y="84.948245" transform="rotate(-0 26.804473 84.948245)">0.8</text>
     </g>
    </g>
    <g id="ytick_6">
     <g id="line2d_13">
      <g>
       <use xlink:href="#m9d378d5bc8" x="33.804473" y="43.208117" style="stroke: #000000; stroke-width: 0.8"/>
      </g>
     </g>
     <g id="text_14">
      <text style="font-size: 6.5px; font-family: 'Arial', 'Helvetica', 'DejaVu Sans', sans-serif; text-anchor: end" x="26.804473" y="45.574206" transform="rotate(-0 26.804473 45.574206)">1.0</text>
     </g>
    </g>
    <g id="text_15">
     <text style="font-size: 7px; font-family: 'Arial', 'Helvetica', 'DejaVu Sans', sans-serif; text-anchor: middle" x="12.296191" y="141.643215" transform="rotate(-90 12.296191 141.643215)">Probability cost-effective</text>
    </g>
   </g>
   <g id="line2d_14">
    <path d="M 33.804473 240.078314 
L 49.334828 240.078314 
L 64.865184 240.078314 
L 80.395539 240.078314 
L 95.925895 240.078314 
L 111.45625 240.078314 
L 126.986605 240.078314 
L 142.516961 240.078314 
L 158.047316 240.078314 
L 173.577672 239.763322 
L 189.108027 239.408955 
L 204.638383 237.912742 
L 220.168738 234.920315 
L 235.699094 230.943537 
L 251.229449 224.919309 
L 266.759805 218.461966 
L 282.29016 211.059647 
L 297.820516 202.436732 
L 313.350871 190.900139 
L 328.881227 179.363545 
L 344.411582 167.708829 
L 359.941937 156.959717 
L 375.472293 146.958711 
L 391.002648 137.705811 
L 406.533004 127.074821 
L 422.063359 118.845647 
L 437.593715 110.49835 
L 453.12407 102.938535 
L 468.654426 96.284322 
L 484.184781 90.141972 
L 499.715137 85.456461 
" clip-path="url(#pe09223fb27)" style="fill: none; stroke: #0f4d92; stroke-width: 2; stroke-linecap: square"/>
   </g>
   <g id="line2d_15">
    <path d="M 111.45625 240.078314 
L 111.45625 43.208117 
" clip-path="url(#pe09223fb27)" style="fill: none; stroke-dasharray: 3.33,1.44; stroke-dashoffset: 0; stroke: #b64342; stroke-width: 0.9"/>
   </g>
   <g id="line2d_16">
    <path d="M 266.759805 240.078314 
L 266.759805 43.208117 
" clip-path="url(#pe09223fb27)" style="fill: none; stroke-dasharray: 3.33,1.44; stroke-dashoffset: 0; stroke: #b8860b; stroke-width: 0.9"/>
   </g>
   <g id="patch_3">
    <path d="M 33.804473 240.078314 
L 33.804473 43.208117 
" style="fill: none; stroke: #000000; stroke-width: 0.8; stroke-linejoin: miter; stroke-linecap: square"/>
   </g>
   <g id="patch_4">
    <path d="M 33.804473 240.078314 
L 499.715137 240.078314 
" style="fill: none; stroke: #000000; stroke-width: 0.8; stroke-linejoin: miter; stroke-linecap: square"/>
   </g>
   <g id="text_16">
    <text style="font-size: 6.5px; font-family: 'Arial', 'Helvetica', 'DejaVu Sans', sans-serif; text-anchor: middle; fill: #b64342" x="111.45625" y="226.2974" transform="rotate(-0 111.45625 226.2974)">0.0%</text>
   </g>
   <g id="text_17">
    <text style="font-size: 6.5px; font-family: 'Arial', 'Helvetica', 'DejaVu Sans', sans-serif; text-anchor: middle; fill: #b8860b" x="266.759805" y="204.681053" transform="rotate(-0 266.759805 204.681053)">11.0%</text>
   </g>
   <g id="text_18">
    <text style="font-weight: 700; font-size: 9px; font-family: 'Arial', 'Helvetica', 'DejaVu Sans', sans-serif; text-anchor: start" x="33.804473" y="13.752246" transform="rotate(-0 33.804473 13.752246)">c</text>
   </g>
   <g id="text_19">
    <text style="font-size: 6.5px; font-family: 'Arial', 'Helvetica', 'DejaVu Sans', sans-serif; text-anchor: start; fill: #4d4d4d" x="33.804473" y="41.239415" transform="rotate(-0 33.804473 41.239415)">PSA indicates low probability of cost-effectiveness at common Canadian threshold scenarios.</text>
   </g>
   <g id="text_20">
    <text style="font-weight: 700; font-size: 9px; font-family: 'Arial', 'Helvetica', 'DejaVu Sans', sans-serif; text-anchor: start" x="33.804473" y="25.208117" transform="rotate(-0 33.804473 25.208117)">Cost-effectiveness acceptability curve</text>
   </g>
   <g id="PathCollection_1">
    <defs>
     <path id="C0_0_beb515ee9f" d="M 0 2.645751 
C 0.701661 2.645751 1.374679 2.366978 1.870829 1.870829 
C 2.366978 1.374679 2.645751 0.701661 2.645751 -0 
C 2.645751 -0.701661 2.366978 -1.374679 1.870829 -1.870829 
C 1.374679 -2.366978 0.701661 -2.645751 0 -2.645751 
C -0.701661 -2.645751 -1.374679 -2.366978 -1.870829 -1.870829 
C -2.366978 -1.374679 -2.645751 -0.701661 -2.645751 0 
C -2.645751 0.701661 -2.366978 1.374679 -1.870829 1.870829 
C -1.374679 2.366978 -0.701661 2.645751 0 2.645751 
z
"/>
    </defs>
    <g clip-path="url(#pe09223fb27)">
     <use xlink:href="#C0_0_beb515ee9f" x="111.45625" y="240.078314" style="fill: #b64342; stroke: #b64342"/>
    </g>
    <g clip-path="url(#pe09223fb27)">
     <use xlink:href="#C0_0_beb515ee9f" x="266.759805" y="218.461966" style="fill: #b8860b; stroke: #b8860b"/>
    </g>
   </g>
  </g>
 </g>
 <defs>
  <clipPath id="pe09223fb27">
   <rect x="33.804473" y="43.208117" width="465.910664" height="196.870197"/>
  </clipPath>
 </defs>
</svg>
