<?xml version="1.0" encoding="utf-8" standalone="no"?>
<!DOCTYPE svg PUBLIC "-//W3C//DTD SVG 1.1//EN"
  "http://www.w3.org/Graphics/SVG/1.1/DTD/svg11.dtd">
<svg xmlns:xlink="http://www.w3.org/1999/xlink" width="461.670403pt" height="247.248pt" viewBox="0 0 461.670403 247.248" xmlns="http://www.w3.org/2000/svg" version="1.1">
 <metadata>
  <rdf:RDF xmlns:dc="http://purl.org/dc/elements/1.1/" xmlns:cc="http://creativecommons.org/ns#" xmlns:rdf="http://www.w3.org/1999/02/22-rdf-syntax-ns#">
   <cc:Work>
    <dc:type rdf:resource="http://purl.org/dc/dcmitype/StillImage"/>
    <dc:date>2026-06-28T00:27:51.297820</dc:date>
    <dc:format>image/svg+xml</dc:format>
    <dc:creator>
     <cc:Agent>
      <dc:title>Matplotlib v3.11.0, https://matplotlib.org/</dc:title>
     </cc:Agent>
    </dc:creator>
   </cc:Work>
  </rdf:RDF>
 </metadata>
 <defs>
  <style type="text/css">*{stroke-linejoin: round; stroke-linecap: butt}</style>
 </defs>
 <g id="figure_1">
  <g id="patch_1">
   <path d="M 0 247.248 
L 461.670403 247.248 
L 461.670403 0 
L 0 0 
z
" style="fill: #ffffff"/>
  </g>
  <g id="axes_1">
   <g id="patch_2">
    <path d="M 37.332 111.9816 
L 121.7016 111.9816 
Q 131.7456 111.9816 131.7456 106.1604 
L 131.7456 78.21864 
Q 131.7456 72.39744 121.7016 72.39744 
L 37.332 72.39744 
Q 27.288 72.39744 27.288 78.21864 
L 27.288 106.1604 
Q 27.288 111.9816 37.332 111.9816 
z
" clip-path="url(#p3549f0f752)" style="fill: #dcebfa; stroke: #0f4d92; stroke-width: 0.9; stroke-linejoin: miter"/>
   </g>
   <g id="patch_3">
    <path d="M 165.8952 111.9816 
L 250.2648 111.9816 
Q 260.3088 111.9816 260.3088 106.1604 
L 260.3088 78.21864 
Q 260.3088 72.39744 250.2648 72.39744 
L 165.8952 72.39744 
Q 155.8512 72.39744 155.8512 78.21864 
L 155.8512 106.1604 
Q 155.8512 111.9816 165.8952 111.9816 
z
" clip-path="url(#p3549f0f752)" style="fill: #fff3c4; stroke: #b8860b; stroke-width: 0.9; stroke-linejoin: miter"/>
   </g>
   <g id="patch_4">
    <path d="M 298.476 111.9816 
L 374.8104 111.9816 
Q 384.8544 111.9816 384.8544 106.1604 
L 384.8544 78.21864 
Q 384.8544 72.39744 374.8104 72.39744 
L 298.476 72.39744 
Q 288.432 72.39744 288.432 78.21864 
L 288.432 106.1604 
Q 288.432 111.9816 298.476 111.9816 
z
" clip-path="url(#p3549f0f752)" style="fill: #f8d9d6; stroke: #b64342; stroke-width: 0.9; stroke-linejoin: miter"/>
   </g>
   <g id="patch_5">
    <path d="M 125.706449 92.18952 
Q 143.796717 92.18952 160.992559 92.18952 
" clip-path="url(#p3549f0f752)" style="fill: none; stroke: #374151; stroke-width: 0.8; stroke-linecap: round"/>
    <path d="M 156.992559 90.18952 
L 160.992559 92.18952 
L 156.992559 94.18952 
z
" clip-path="url(#p3549f0f752)" style="fill: #374151; stroke: #374151; stroke-width: 0.8; stroke-linecap: round"/>
   </g>
   <g id="patch_6">
    <path d="M 254.272346 92.18952 
Q 274.369242 92.18952 293.571711 92.18952 
" clip-path="url(#p3549f0f752)" style="fill: none; stroke: #374151; stroke-width: 0.8; stroke-linecap: round"/>
    <path d="M 289.571711 90.18952 
L 293.571711 92.18952 
L 289.571711 94.18952 
z
" clip-path="url(#p3549f0f752)" style="fill: #374151; stroke: #374151; stroke-width: 0.8; stroke-linecap: round"/>
   </g>
   <g id="patch_7">
    <path d="M 81.403973 76.380004 
Q 208.083031 31.444969 333.919127 76.083128 
" clip-path="url(#p3549f0f752)" style="fill: none; stroke: #374151; stroke-width: 0.8; stroke-linecap: round"/>
    <path d="M 330.817932 72.860926 
L 333.919127 76.083128 
L 329.480648 76.630763 
z
" clip-path="url(#p3549f0f752)" style="fill: #374151; stroke: #374151; stroke-width: 0.8; stroke-linecap: round"/>
   </g>
   <g id="patch_8">
    <path d="M 78.089737 108.72764 
Q 70.698299 116.638829 77.479596 123.896479 
" clip-path="url(#p3549f0f752)" style="fill: none; stroke: #374151; stroke-width: 0.8; stroke-linecap: round"/>
    <path d="M 76.210069 119.60832 
L 77.479596 123.896479 
L 73.287353 122.339205 
z
" clip-path="url(#p3549f0f752)" style="fill: #374151; stroke: #374151; stroke-width: 0.8; stroke-linecap: round"/>
   </g>
   <g id="patch_9">
    <path d="M 206.652937 108.72764 
Q 199.261499 116.638829 206.042796 123.896479 
" clip-path="url(#p3549f0f752)" style="fill: none; stroke: #374151; stroke-width: 0.8; stroke-linecap: round"/>
    <path d="M 204.773269 119.60832 
L 206.042796 123.896479 
L 201.850553 122.339205 
z
" clip-path="url(#p3549f0f752)" style="fill: #374151; stroke: #374151; stroke-width: 0.8; stroke-linecap: round"/>
   </g>
   <g id="patch_10">
    <path d="M 37.332 193.4784 
L 185.9832 193.4784 
Q 196.0272 193.4784 196.0272 187.6572 
L 196.0272 150.40152 
Q 196.0272 144.58032 185.9832 144.58032 
L 37.332 144.58032 
Q 27.288 144.58032 27.288 150.40152 
L 27.288 187.6572 
Q 27.288 193.4784 37.332 193.4784 
z
" clip-path="url(#p3549f0f752)" style="fill: #ddeff1; stroke: #42949e; stroke-width: 0.9; stroke-linejoin: miter"/>
   </g>
   <g id="patch_11">
    <path d="M 230.1768 193.4784 
L 374.8104 193.4784 
Q 384.8544 193.4784 384.8544 187.6572 
L 384.8544 150.40152 
Q 384.8544 144.58032 374.8104 144.58032 
L 230.1768 144.58032 
Q 220.1328 144.58032 220.1328 150.40152 
L 220.1328 187.6572 
Q 220.1328 193.4784 230.1768 193.4784 
z
" clip-path="url(#p3549f0f752)" style="fill: #eef2f7; stroke: #64748b; stroke-width: 0.9; stroke-linejoin: miter"/>
   </g>
   <g id="text_1">
    <text style="font-weight: 700; font-size: 9px; font-family: 'Arial', 'Helvetica', 'DejaVu Sans', sans-serif; text-anchor: start" x="15.2352" y="23.066166" transform="rotate(-0 15.2352 23.066166)">a</text>
   </g>
   <g id="text_2">
    <text style="font-weight: 700; font-size: 9px; font-family: 'Arial', 'Helvetica', 'DejaVu Sans', sans-serif; text-anchor: start" x="31.3056" y="23.066166" transform="rotate(-0 31.3056 23.066166)">Implemented Markov model structure</text>
   </g>
   <g id="text_3">
    <text style="font-size: 6.5px; font-family: 'Arial', 'Helvetica', 'DejaVu Sans', sans-serif; text-anchor: start; fill: #4d4d4d" x="31.3056" y="30.4848" transform="rotate(-0 31.3056 30.4848)">Annual cycles; diabetes is the modeled obesity-related complication; death is absorbing.</text>
   </g>
   <g id="text_4">
    <text style="font-weight: 700; font-size: 7.5px; font-family: 'Arial', 'Helvetica', 'DejaVu Sans', sans-serif; text-anchor: middle" x="79.5168" y="91.708819" transform="rotate(-0 79.5168 91.708819)">No diabetes</text>
   </g>
   <g id="text_5">
    <text style="font-size: 6.2px; font-family: 'Arial', 'Helvetica', 'DejaVu Sans', sans-serif; text-anchor: middle; fill: #4d4d4d" x="79.5168" y="99.242595" transform="rotate(-0 79.5168 99.242595)">starting cohort</text>
   </g>
   <g id="text_6">
    <text style="font-weight: 700; font-size: 7.5px; font-family: 'Arial', 'Helvetica', 'DejaVu Sans', sans-serif; text-anchor: middle" x="208.08" y="91.708746" transform="rotate(-0 208.08 91.708746)">Type 2 diabetes</text>
   </g>
   <g id="text_7">
    <text style="font-size: 6.2px; font-family: 'Arial', 'Helvetica', 'DejaVu Sans', sans-serif; text-anchor: middle; fill: #4d4d4d" x="208.08" y="99.242655" transform="rotate(-0 208.08 99.242655)">chronic complication</text>
   </g>
   <g id="text_8">
    <text style="font-weight: 700; font-size: 7.5px; font-family: 'Arial', 'Helvetica', 'DejaVu Sans', sans-serif; text-anchor: middle" x="336.6432" y="91.708819" transform="rotate(-0 336.6432 91.708819)">Death</text>
   </g>
   <g id="text_9">
    <text style="font-size: 6.2px; font-family: 'Arial', 'Helvetica', 'DejaVu Sans', sans-serif; text-anchor: middle; fill: #4d4d4d" x="336.6432" y="99.242595" transform="rotate(-0 336.6432 99.242595)">absorbing state</text>
   </g>
   <g id="text_10">
    <text style="font-size: 5.8px; font-family: 'Arial', 'Helvetica', 'DejaVu Sans', sans-serif; text-anchor: middle; fill: #4d4d4d" x="143.7984" y="85.147715" transform="rotate(-0 143.7984 85.147715)">incident diabetes</text>
   </g>
   <g id="text_11">
    <text style="font-size: 5.8px; font-family: 'Arial', 'Helvetica', 'DejaVu Sans', sans-serif; text-anchor: middle; fill: #4d4d4d" x="274.3704" y="85.147601" transform="rotate(-0 274.3704 85.147601)">excess mortality</text>
   </g>
   <g id="text_12">
    <text style="font-size: 5.8px; font-family: 'Arial', 'Helvetica', 'DejaVu Sans', sans-serif; text-anchor: middle; fill: #4d4d4d" x="208.08" y="70.012481" transform="rotate(-0 208.08 70.012481)">background mortality</text>
   </g>
   <g id="text_13">
    <text style="font-size: 5.8px; font-family: 'Arial', 'Helvetica', 'DejaVu Sans', sans-serif; text-anchor: middle; fill: #4d4d4d" x="79.5168" y="109.596755" transform="rotate(-0 79.5168 109.596755)">remain</text>
   </g>
   <g id="text_14">
    <text style="font-size: 5.8px; font-family: 'Arial', 'Helvetica', 'DejaVu Sans', sans-serif; text-anchor: middle; fill: #4d4d4d" x="208.08" y="109.596755" transform="rotate(-0 208.08 109.596755)">remain</text>
   </g>
   <g id="text_15">
    <text style="font-weight: 700; font-size: 7.5px; font-family: 'Arial', 'Helvetica', 'DejaVu Sans', sans-serif; text-anchor: middle" x="111.6576" y="167.803472" transform="rotate(-0 111.6576 167.803472)">Semaglutide arm</text>
   </g>
   <g id="text_16">
    <text style="font-size: 6.2px; font-family: 'Arial', 'Helvetica', 'DejaVu Sans', sans-serif; fill: #4d4d4d" transform="translate(80.901725 174.383149)">drug + monitoring cost</text>
    <text style="font-size: 6.2px; font-family: 'Arial', 'Helvetica', 'DejaVu Sans', sans-serif; fill: #4d4d4d" transform="translate(59.045272 181.134731)">HRQoL gain; lower diabetes incidence</text>
   </g>
   <g id="text_17">
    <text style="font-weight: 700; font-size: 7.5px; font-family: 'Arial', 'Helvetica', 'DejaVu Sans', sans-serif; text-anchor: middle" x="302.4936" y="167.803545" transform="rotate(-0 302.4936 167.803545)">Comparator arm</text>
   </g>
   <g id="text_18">
    <text style="font-size: 6.2px; font-family: 'Arial', 'Helvetica', 'DejaVu Sans', sans-serif; fill: #4d4d4d" transform="translate(268.376647 174.384966)">non-GLP-1 management</text>
    <text style="font-size: 6.2px; font-family: 'Arial', 'Helvetica', 'DejaVu Sans', sans-serif; fill: #4d4d4d" transform="translate(264.407678 181.133036)">baseline diabetes incidence</text>
   </g>
   <g id="text_19">
    <text style="font-size: 6.1px; font-family: 'Arial', 'Helvetica', 'DejaVu Sans', sans-serif; fill: #4d4d4d" transform="translate(35.3232 210.12397)">Costs, QALYs, and life-years accrue with half-cycle correction. The implemented public-source model is intentionally parsimonious; additional complications</text>
    <text style="font-size: 6.1px; font-family: 'Arial', 'Helvetica', 'DejaVu Sans', sans-serif; fill: #4d4d4d" transform="translate(35.3232 216.7632)">can be added in future versions.</text>
   </g>
  </g>
 </g>
 <defs>
  <clipPath id="p3549f0f752">
   <rect x="7.2" y="7.2" width="401.76" height="232.848"/>
  </clipPath>
 </defs>
</svg>
