<?xml version="1.0" encoding="utf-8" standalone="no"?>
<!DOCTYPE svg PUBLIC "-//W3C//DTD SVG 1.1//EN"
  "http://www.w3.org/Graphics/SVG/1.1/DTD/svg11.dtd">
<svg xmlns:xlink="http://www.w3.org/1999/xlink" width="416.16pt" height="172.404pt" viewBox="0 0 416.16 172.404" xmlns="http://www.w3.org/2000/svg" version="1.1">
 <metadata>
  <rdf:RDF xmlns:dc="http://purl.org/dc/elements/1.1/" xmlns:cc="http://creativecommons.org/ns#" xmlns:rdf="http://www.w3.org/1999/02/22-rdf-syntax-ns#">
   <cc:Work>
    <dc:type rdf:resource="http://purl.org/dc/dcmitype/StillImage"/>
    <dc:date>2026-07-01T00:53:35.563590</dc:date>
    <dc:format>image/svg+xml</dc:format>
    <dc:creator>
     <cc:Agent>
      <dc:title>Matplotlib v3.11.0, https://matplotlib.org/</dc:title>
     </cc:Agent>
    </dc:creator>
   </cc:Work>
  </rdf:RDF>
 </metadata>
 <defs>
  <style type="text/css">*{stroke-linejoin: round; stroke-linecap: butt}</style>
 </defs>
 <g id="figure_1">
  <g id="patch_1">
   <path d="M 0 172.404 
L 416.16 172.404 
L 416.16 0 
L 0 0 
z
" style="fill: #ffffff"/>
  </g>
  <g id="axes_1">
   <g id="patch_2">
    <path d="M 39.3408 94.1022 
L 111.6576 94.1022 
Q 121.7016 94.1022 121.7016 90.1521 
L 121.7016 63.29142 
Q 121.7016 59.34132 111.6576 59.34132 
L 39.3408 59.34132 
Q 29.2968 59.34132 29.2968 63.29142 
L 29.2968 90.1521 
Q 29.2968 94.1022 39.3408 94.1022 
z
" clip-path="url(#pe4aece9006)" style="fill: #dcebfa; stroke: #0f4d92; stroke-width: 0.9; stroke-linejoin: miter"/>
   </g>
   <g id="patch_3">
    <path d="M 171.9216 94.1022 
L 244.2384 94.1022 
Q 254.2824 94.1022 254.2824 90.1521 
L 254.2824 63.29142 
Q 254.2824 59.34132 244.2384 59.34132 
L 171.9216 59.34132 
Q 161.8776 59.34132 161.8776 63.29142 
L 161.8776 90.1521 
Q 161.8776 94.1022 171.9216 94.1022 
z
" clip-path="url(#pe4aece9006)" style="fill: #fff3c4; stroke: #b8860b; stroke-width: 0.9; stroke-linejoin: miter"/>
   </g>
   <g id="patch_4">
    <path d="M 304.5024 94.1022 
L 376.8192 94.1022 
Q 386.8632 94.1022 386.8632 90.1521 
L 386.8632 63.29142 
Q 386.8632 59.34132 376.8192 59.34132 
L 304.5024 59.34132 
Q 294.4584 59.34132 294.4584 63.29142 
L 294.4584 90.1521 
Q 294.4584 94.1022 304.5024 94.1022 
z
" clip-path="url(#pe4aece9006)" style="fill: #f8d9d6; stroke: #b64342; stroke-width: 0.9; stroke-linejoin: miter"/>
   </g>
   <g id="patch_5">
    <path d="M 115.667844 76.72176 
Q 141.78879 76.72176 167.015309 76.72176 
" clip-path="url(#pe4aece9006)" style="fill: none; stroke: #374151; stroke-width: 0.8; stroke-linecap: round"/>
    <path d="M 163.015309 74.72176 
L 167.015309 76.72176 
L 163.015309 78.72176 
z
" clip-path="url(#pe4aece9006)" style="fill: #374151; stroke: #374151; stroke-width: 0.8; stroke-linecap: round"/>
   </g>
   <g id="patch_6">
    <path d="M 248.248644 76.72176 
Q 274.36959 76.72176 299.596109 76.72176 
" clip-path="url(#pe4aece9006)" style="fill: none; stroke: #374151; stroke-width: 0.8; stroke-linecap: round"/>
    <path d="M 295.596109 74.72176 
L 299.596109 76.72176 
L 295.596109 78.72176 
z
" clip-path="url(#pe4aece9006)" style="fill: #374151; stroke: #374151; stroke-width: 0.8; stroke-linecap: round"/>
   </g>
   <g id="patch_7">
    <path d="M 109.613366 55.868175 
Q 224.148179 37.85299 337.799427 55.728506 
" clip-path="url(#pe4aece9006)" style="fill: none; stroke: #374151; stroke-width: 0.8; stroke-linecap: round"/>
    <path d="M 334.158752 53.131299 
L 337.799427 55.728506 
L 333.537257 57.082722 
z
" clip-path="url(#pe4aece9006)" style="fill: #374151; stroke: #374151; stroke-width: 0.8; stroke-linecap: round"/>
   </g>
   <g id="patch_8">
    <path d="M 48.17952 142.767432 
L 191.20608 142.767432 
Q 199.24128 142.767432 199.24128 139.607352 
L 199.24128 108.638568 
Q 199.24128 105.478488 191.20608 105.478488 
L 48.17952 105.478488 
Q 40.14432 105.478488 40.14432 108.638568 
L 40.14432 139.607352 
Q 40.14432 142.767432 48.17952 142.767432 
z
" clip-path="url(#pe4aece9006)" style="fill: #ddeff1; stroke: #42949e; stroke-width: 0.9; stroke-linejoin: miter"/>
   </g>
   <g id="patch_9">
    <path d="M 224.95392 142.767432 
L 367.98048 142.767432 
Q 376.01568 142.767432 376.01568 139.607352 
L 376.01568 108.638568 
Q 376.01568 105.478488 367.98048 105.478488 
L 224.95392 105.478488 
Q 216.91872 105.478488 216.91872 108.638568 
L 216.91872 139.607352 
Q 216.91872 142.767432 224.95392 142.767432 
z
" clip-path="url(#pe4aece9006)" style="fill: #eef2f7; stroke: #64748b; stroke-width: 0.9; stroke-linejoin: miter"/>
   </g>
   <g id="text_1">
    <text style="font-weight: 700; font-size: 9px; font-family: 'Arial', 'Helvetica', 'DejaVu Sans', sans-serif; text-anchor: start" x="15.2352" y="23.232486" transform="rotate(-0 15.2352 23.232486)">a</text>
   </g>
   <g id="text_2">
    <text style="font-weight: 700; font-size: 9px; font-family: 'Arial', 'Helvetica', 'DejaVu Sans', sans-serif; text-anchor: start" x="35.3232" y="23.232486" transform="rotate(-0 35.3232 23.232486)">Cohort Markov structure</text>
   </g>
   <g id="text_3">
    <text style="font-size: 6.7px; font-family: 'Arial', 'Helvetica', 'DejaVu Sans', sans-serif; text-anchor: start; fill: #4d4d4d" x="35.3232" y="29.32056" transform="rotate(-0 35.3232 29.32056)">Annual cycles; type 2 diabetes is the modeled complication; death is absorbing.</text>
   </g>
   <g id="text_4">
    <text style="font-weight: 700; font-size: 7.9px; font-family: 'Arial', 'Helvetica', 'DejaVu Sans', sans-serif; text-anchor: middle" x="75.4992" y="76.490936" transform="rotate(-0 75.4992 76.490936)">No diabetes</text>
   </g>
   <g id="text_5">
    <text style="font-size: 6.1px; font-family: 'Arial', 'Helvetica', 'DejaVu Sans', sans-serif; text-anchor: middle; fill: #4d4d4d" x="75.4992" y="83.419643" transform="rotate(-0 75.4992 83.419643)">starting cohort</text>
   </g>
   <g id="text_6">
    <text style="font-weight: 700; font-size: 7.9px; font-family: 'Arial', 'Helvetica', 'DejaVu Sans', sans-serif; text-anchor: middle" x="208.08" y="76.490859" transform="rotate(-0 208.08 76.490859)">Type 2 diabetes</text>
   </g>
   <g id="text_7">
    <text style="font-size: 6.1px; font-family: 'Arial', 'Helvetica', 'DejaVu Sans', sans-serif; text-anchor: middle; fill: #4d4d4d" x="208.08" y="83.419703" transform="rotate(-0 208.08 83.419703)">chronic state</text>
   </g>
   <g id="text_8">
    <text style="font-weight: 700; font-size: 7.9px; font-family: 'Arial', 'Helvetica', 'DejaVu Sans', sans-serif; text-anchor: middle" x="340.6608" y="76.490936" transform="rotate(-0 340.6608 76.490936)">Death</text>
   </g>
   <g id="text_9">
    <text style="font-size: 6.1px; font-family: 'Arial', 'Helvetica', 'DejaVu Sans', sans-serif; text-anchor: middle; fill: #4d4d4d" x="340.6608" y="83.419643" transform="rotate(-0 340.6608 83.419643)">absorbing state</text>
   </g>
   <g id="text_10">
    <text style="font-size: 5.8px; font-family: 'Arial', 'Helvetica', 'DejaVu Sans', sans-serif; text-anchor: middle; fill: #4d4d4d" x="141.7896" y="68.074967" transform="rotate(-0 141.7896 68.074967)">T2D onset</text>
   </g>
   <g id="text_11">
    <text style="font-size: 5.8px; font-family: 'Arial', 'Helvetica', 'DejaVu Sans', sans-serif; text-anchor: middle; fill: #4d4d4d" x="274.3704" y="68.074853" transform="rotate(-0 274.3704 68.074853)">mortality</text>
   </g>
   <g id="text_12">
    <text style="font-size: 5.8px; font-family: 'Arial', 'Helvetica', 'DejaVu Sans', sans-serif; text-anchor: middle; fill: #4d4d4d" x="224.1504" y="39.950141" transform="rotate(-0 224.1504 39.950141)">background mortality</text>
   </g>
   <g id="text_13">
    <text style="font-weight: 700; font-size: 6.9px; font-family: 'Arial', 'Helvetica', 'DejaVu Sans', sans-serif; text-anchor: middle" x="119.6928" y="120.378397" transform="rotate(-0 119.6928 120.378397)">Semaglutide modifiers</text>
   </g>
   <g id="text_14">
    <text style="font-size: 5.8px; font-family: 'Arial', 'Helvetica', 'DejaVu Sans', sans-serif; text-anchor: middle; fill: #4d4d4d" x="119.6928" y="127.99394" transform="rotate(-0 119.6928 127.99394)">drug and monitoring cost</text>
   </g>
   <g id="text_15">
    <text style="font-size: 5.8px; font-family: 'Arial', 'Helvetica', 'DejaVu Sans', sans-serif; text-anchor: middle; fill: #4d4d4d" x="119.6928" y="134.3141" transform="rotate(-0 119.6928 134.3141)">utility gain; lower T2D incidence</text>
   </g>
   <g id="text_16">
    <text style="font-weight: 700; font-size: 6.9px; font-family: 'Arial', 'Helvetica', 'DejaVu Sans', sans-serif; text-anchor: middle" x="296.4672" y="120.378465" transform="rotate(-0 296.4672 120.378465)">Comparator modifiers</text>
   </g>
   <g id="text_17">
    <text style="font-size: 5.8px; font-family: 'Arial', 'Helvetica', 'DejaVu Sans', sans-serif; text-anchor: middle; fill: #4d4d4d" x="296.4672" y="127.993997" transform="rotate(-0 296.4672 127.993997)">usual non-GLP-1 care</text>
   </g>
   <g id="text_18">
    <text style="font-size: 5.8px; font-family: 'Arial', 'Helvetica', 'DejaVu Sans', sans-serif; text-anchor: middle; fill: #4d4d4d" x="296.4672" y="134.314157" transform="rotate(-0 296.4672 134.314157)">baseline T2D incidence</text>
   </g>
   <g id="text_19">
    <text style="font-size: 5.8px; font-family: 'Arial', 'Helvetica', 'DejaVu Sans', sans-serif; text-anchor: start; fill: #4d4d4d" x="47.376" y="150.19362" transform="rotate(-0 47.376 150.19362)">Treatment arms modify costs, utility, and transition probabilities; they are not additional health states.</text>
   </g>
  </g>
 </g>
 <defs>
  <clipPath id="pe4aece9006">
   <rect x="7.2" y="7.2" width="401.76" height="158.004"/>
  </clipPath>
 </defs>
</svg>
