<?xml version="1.0" encoding="utf-8" standalone="no"?>
<!DOCTYPE svg PUBLIC "-//W3C//DTD SVG 1.1//EN"
  "http://www.w3.org/Graphics/SVG/1.1/DTD/svg11.dtd">
<svg xmlns:xlink="http://www.w3.org/1999/xlink" width="461.670403pt" height="208.44pt" viewBox="0 0 461.670403 208.44" xmlns="http://www.w3.org/2000/svg" version="1.1">
 <metadata>
  <rdf:RDF xmlns:dc="http://purl.org/dc/elements/1.1/" xmlns:cc="http://creativecommons.org/ns#" xmlns:rdf="http://www.w3.org/1999/02/22-rdf-syntax-ns#">
   <cc:Work>
    <dc:type rdf:resource="http://purl.org/dc/dcmitype/StillImage"/>
    <dc:date>2026-06-28T22:48:20.540210</dc:date>
    <dc:format>image/svg+xml</dc:format>
    <dc:creator>
     <cc:Agent>
      <dc:title>Matplotlib v3.11.0, https://matplotlib.org/</dc:title>
     </cc:Agent>
    </dc:creator>
   </cc:Work>
  </rdf:RDF>
 </metadata>
 <defs>
  <style type="text/css">*{stroke-linejoin: round; stroke-linecap: butt}</style>
 </defs>
 <g id="figure_1">
  <g id="patch_1">
   <path d="M 0 208.44 
L 461.670403 208.44 
L 461.670403 0 
L 0 0 
z
" style="fill: #ffffff"/>
  </g>
  <g id="axes_1">
   <g id="patch_2">
    <path d="M 37.332 96.4584 
L 121.7016 96.4584 
Q 131.7456 96.4584 131.7456 91.6074 
L 131.7456 68.3226 
Q 131.7456 63.4716 121.7016 63.4716 
L 37.332 63.4716 
Q 27.288 63.4716 27.288 68.3226 
L 27.288 91.6074 
Q 27.288 96.4584 37.332 96.4584 
z
" clip-path="url(#p35d97264fc)" style="fill: #dcebfa; stroke: #0f4d92; stroke-width: 0.9; stroke-linejoin: miter"/>
   </g>
   <g id="patch_3">
    <path d="M 165.8952 96.4584 
L 250.2648 96.4584 
Q 260.3088 96.4584 260.3088 91.6074 
L 260.3088 68.3226 
Q 260.3088 63.4716 250.2648 63.4716 
L 165.8952 63.4716 
Q 155.8512 63.4716 155.8512 68.3226 
L 155.8512 91.6074 
Q 155.8512 96.4584 165.8952 96.4584 
z
" clip-path="url(#p35d97264fc)" style="fill: #fff3c4; stroke: #b8860b; stroke-width: 0.9; stroke-linejoin: miter"/>
   </g>
   <g id="patch_4">
    <path d="M 298.476 96.4584 
L 374.8104 96.4584 
Q 384.8544 96.4584 384.8544 91.6074 
L 384.8544 68.3226 
Q 384.8544 63.4716 374.8104 63.4716 
L 298.476 63.4716 
Q 288.432 63.4716 288.432 68.3226 
L 288.432 91.6074 
Q 288.432 96.4584 298.476 96.4584 
z
" clip-path="url(#p35d97264fc)" style="fill: #f8d9d6; stroke: #b64342; stroke-width: 0.9; stroke-linejoin: miter"/>
   </g>
   <g id="patch_5">
    <path d="M 125.706449 79.965 
Q 143.796717 79.965 160.992559 79.965 
" clip-path="url(#p35d97264fc)" style="fill: none; stroke: #374151; stroke-width: 0.8; stroke-linecap: round"/>
    <path d="M 156.992559 77.965 
L 160.992559 79.965 
L 156.992559 81.965 
z
" clip-path="url(#p35d97264fc)" style="fill: #374151; stroke: #374151; stroke-width: 0.8; stroke-linecap: round"/>
   </g>
   <g id="patch_6">
    <path d="M 254.272346 79.965 
Q 274.369242 79.965 293.571711 79.965 
" clip-path="url(#p35d97264fc)" style="fill: none; stroke: #374151; stroke-width: 0.8; stroke-linecap: round"/>
    <path d="M 289.571711 77.965 
L 293.571711 79.965 
L 289.571711 81.965 
z
" clip-path="url(#p35d97264fc)" style="fill: #374151; stroke: #374151; stroke-width: 0.8; stroke-linecap: round"/>
   </g>
   <g id="patch_7">
    <path d="M 129.560981 55.880765 
Q 232.184162 11.518913 333.986337 55.524627 
" clip-path="url(#p35d97264fc)" style="fill: none; stroke: #374151; stroke-width: 0.8; stroke-linecap: round"/>
    <path d="M 331.108253 52.10167 
L 333.986337 55.524627 
L 329.521121 55.773319 
z
" clip-path="url(#p35d97264fc)" style="fill: #374151; stroke: #374151; stroke-width: 0.8; stroke-linecap: round"/>
   </g>
   <g id="patch_8">
    <path d="M 60.423391 62.706935 
Q 75.499381 37.24964 90.119616 61.937942 
" clip-path="url(#p35d97264fc)" style="fill: none; stroke: #374151; stroke-width: 0.8; stroke-linecap: round"/>
    <path d="M 89.80231 57.477077 
L 90.119616 61.937942 
L 86.36054 59.515268 
z
" clip-path="url(#p35d97264fc)" style="fill: #374151; stroke: #374151; stroke-width: 0.8; stroke-linecap: round"/>
   </g>
   <g id="patch_9">
    <path d="M 193.004191 62.706935 
Q 208.080181 37.24964 222.700416 61.937942 
" clip-path="url(#p35d97264fc)" style="fill: none; stroke: #374151; stroke-width: 0.8; stroke-linecap: round"/>
    <path d="M 222.38311 57.477077 
L 222.700416 61.937942 
L 218.94134 59.515268 
z
" clip-path="url(#p35d97264fc)" style="fill: #374151; stroke: #374151; stroke-width: 0.8; stroke-linecap: round"/>
   </g>
   <g id="patch_10">
    <path d="M 37.332 144.9684 
L 185.9832 144.9684 
Q 196.0272 144.9684 196.0272 140.1174 
L 196.0272 111.0114 
Q 196.0272 106.1604 185.9832 106.1604 
L 37.332 106.1604 
Q 27.288 106.1604 27.288 111.0114 
L 27.288 140.1174 
Q 27.288 144.9684 37.332 144.9684 
z
" clip-path="url(#p35d97264fc)" style="fill: #ddeff1; stroke: #42949e; stroke-width: 0.9; stroke-linejoin: miter"/>
   </g>
   <g id="patch_11">
    <path d="M 230.1768 144.9684 
L 374.8104 144.9684 
Q 384.8544 144.9684 384.8544 140.1174 
L 384.8544 111.0114 
Q 384.8544 106.1604 374.8104 106.1604 
L 230.1768 106.1604 
Q 220.1328 106.1604 220.1328 111.0114 
L 220.1328 140.1174 
Q 220.1328 144.9684 230.1768 144.9684 
z
" clip-path="url(#p35d97264fc)" style="fill: #eef2f7; stroke: #64748b; stroke-width: 0.9; stroke-linejoin: miter"/>
   </g>
   <g id="text_1">
    <text style="font-weight: 700; font-size: 9px; font-family: 'Arial', 'Helvetica', 'DejaVu Sans', sans-serif; text-anchor: start" x="15.2352" y="21.513846" transform="rotate(-0 15.2352 21.513846)">a</text>
   </g>
   <g id="text_2">
    <text style="font-weight: 700; font-size: 9px; font-family: 'Arial', 'Helvetica', 'DejaVu Sans', sans-serif; text-anchor: start" x="31.3056" y="21.513846" transform="rotate(-0 31.3056 21.513846)">Implemented Markov model structure</text>
   </g>
   <g id="text_3">
    <text style="font-size: 6.5px; font-family: 'Arial', 'Helvetica', 'DejaVu Sans', sans-serif; text-anchor: start; fill: #4d4d4d" x="31.3056" y="26.604" transform="rotate(-0 31.3056 26.604)">Annual cycles; diabetes is the modeled obesity-related complication; death is absorbing.</text>
   </g>
   <g id="text_4">
    <text style="font-weight: 700; font-size: 7.5px; font-family: 'Arial', 'Helvetica', 'DejaVu Sans', sans-serif; text-anchor: middle" x="79.5168" y="79.887902" transform="rotate(-0 79.5168 79.887902)">No diabetes</text>
   </g>
   <g id="text_5">
    <text style="font-size: 6.2px; font-family: 'Arial', 'Helvetica', 'DejaVu Sans', sans-serif; text-anchor: middle; fill: #4d4d4d" x="79.5168" y="86.109968" transform="rotate(-0 79.5168 86.109968)">starting cohort</text>
   </g>
   <g id="text_6">
    <text style="font-weight: 700; font-size: 7.5px; font-family: 'Arial', 'Helvetica', 'DejaVu Sans', sans-serif; text-anchor: middle" x="208.08" y="79.887829" transform="rotate(-0 208.08 79.887829)">Type 2 diabetes</text>
   </g>
   <g id="text_7">
    <text style="font-size: 6.2px; font-family: 'Arial', 'Helvetica', 'DejaVu Sans', sans-serif; text-anchor: middle; fill: #4d4d4d" x="208.08" y="86.110028" transform="rotate(-0 208.08 86.110028)">chronic complication</text>
   </g>
   <g id="text_8">
    <text style="font-weight: 700; font-size: 7.5px; font-family: 'Arial', 'Helvetica', 'DejaVu Sans', sans-serif; text-anchor: middle" x="336.6432" y="79.887902" transform="rotate(-0 336.6432 79.887902)">Death</text>
   </g>
   <g id="text_9">
    <text style="font-size: 6.2px; font-family: 'Arial', 'Helvetica', 'DejaVu Sans', sans-serif; text-anchor: middle; fill: #4d4d4d" x="336.6432" y="86.109968" transform="rotate(-0 336.6432 86.109968)">absorbing state</text>
   </g>
   <g id="text_10">
    <text style="font-size: 5.8px; font-family: 'Arial', 'Helvetica', 'DejaVu Sans', sans-serif; text-anchor: middle; fill: #4d4d4d" x="143.7984" y="73.893395" transform="rotate(-0 143.7984 73.893395)">incident diabetes</text>
   </g>
   <g id="text_11">
    <text style="font-size: 5.8px; font-family: 'Arial', 'Helvetica', 'DejaVu Sans', sans-serif; text-anchor: middle; fill: #4d4d4d" x="274.3704" y="73.893281" transform="rotate(-0 274.3704 73.893281)">excess mortality</text>
   </g>
   <g id="text_12">
    <text style="font-size: 5.8px; font-family: 'Arial', 'Helvetica', 'DejaVu Sans', sans-serif; text-anchor: middle; fill: #4d4d4d" x="232.1856" y="40.906481" transform="rotate(-0 232.1856 40.906481)">background mortality</text>
   </g>
   <g id="text_13">
    <text style="font-size: 5.8px; font-family: 'Arial', 'Helvetica', 'DejaVu Sans', sans-serif; text-anchor: middle; fill: #4d4d4d" x="75.4992" y="58.370195" transform="rotate(-0 75.4992 58.370195)">remain</text>
   </g>
   <g id="text_14">
    <text style="font-size: 5.8px; font-family: 'Arial', 'Helvetica', 'DejaVu Sans', sans-serif; text-anchor: middle; fill: #4d4d4d" x="208.08" y="58.370195" transform="rotate(-0 208.08 58.370195)">remain</text>
   </g>
   <g id="text_15">
    <text style="font-weight: 700; font-size: 7.5px; font-family: 'Arial', 'Helvetica', 'DejaVu Sans', sans-serif; text-anchor: middle" x="111.6576" y="125.021533" transform="rotate(-0 111.6576 125.021533)">Semaglutide arm</text>
   </g>
   <g id="text_16">
    <text style="font-size: 6.2px; font-family: 'Arial', 'Helvetica', 'DejaVu Sans', sans-serif; fill: #4d4d4d" transform="translate(80.901725 129.381393)">drug + monitoring cost</text>
    <text style="font-size: 6.2px; font-family: 'Arial', 'Helvetica', 'DejaVu Sans', sans-serif; fill: #4d4d4d" transform="translate(59.045272 136.132975)">HRQoL gain; lower diabetes incidence</text>
   </g>
   <g id="text_17">
    <text style="font-weight: 700; font-size: 7.5px; font-family: 'Arial', 'Helvetica', 'DejaVu Sans', sans-serif; text-anchor: middle" x="302.4936" y="125.021606" transform="rotate(-0 302.4936 125.021606)">Comparator arm</text>
   </g>
   <g id="text_18">
    <text style="font-size: 6.2px; font-family: 'Arial', 'Helvetica', 'DejaVu Sans', sans-serif; fill: #4d4d4d" transform="translate(268.376647 129.383209)">non-GLP-1 management</text>
    <text style="font-size: 6.2px; font-family: 'Arial', 'Helvetica', 'DejaVu Sans', sans-serif; fill: #4d4d4d" transform="translate(264.407678 136.131279)">baseline diabetes incidence</text>
   </g>
   <g id="text_19">
    <text style="font-size: 6.1px; font-family: 'Arial', 'Helvetica', 'DejaVu Sans', sans-serif; fill: #4d4d4d" transform="translate(35.3232 161.61397)">Costs, QALYs, and life-years accrue with half-cycle correction. The implemented public-source model is intentionally parsimonious; additional complications</text>
    <text style="font-size: 6.1px; font-family: 'Arial', 'Helvetica', 'DejaVu Sans', sans-serif; fill: #4d4d4d" transform="translate(35.3232 168.2532)">can be added in future versions.</text>
   </g>
  </g>
 </g>
 <defs>
  <clipPath id="p35d97264fc">
   <rect x="7.2" y="7.2" width="401.76" height="194.04"/>
  </clipPath>
 </defs>
</svg>
