<?xml version="1.0" encoding="utf-8" standalone="no"?>
<!DOCTYPE svg PUBLIC "-//W3C//DTD SVG 1.1//EN"
  "http://www.w3.org/Graphics/SVG/1.1/DTD/svg11.dtd">
<svg xmlns:xlink="http://www.w3.org/1999/xlink" width="416.16pt" height="144.684pt" viewBox="0 0 416.16 144.684" xmlns="http://www.w3.org/2000/svg" version="1.1">
 <metadata>
  <rdf:RDF xmlns:dc="http://purl.org/dc/elements/1.1/" xmlns:cc="http://creativecommons.org/ns#" xmlns:rdf="http://www.w3.org/1999/02/22-rdf-syntax-ns#">
   <cc:Work>
    <dc:type rdf:resource="http://purl.org/dc/dcmitype/StillImage"/>
    <dc:date>2026-06-28T23:10:29.344418</dc:date>
    <dc:format>image/svg+xml</dc:format>
    <dc:creator>
     <cc:Agent>
      <dc:title>Matplotlib v3.11.0, https://matplotlib.org/</dc:title>
     </cc:Agent>
    </dc:creator>
   </cc:Work>
  </rdf:RDF>
 </metadata>
 <defs>
  <style type="text/css">*{stroke-linejoin: round; stroke-linecap: butt}</style>
 </defs>
 <g id="figure_1">
  <g id="patch_1">
   <path d="M 0 144.684 
L 416.16 144.684 
L 416.16 0 
L 0 0 
z
" style="fill: #ffffff"/>
  </g>
  <g id="axes_1">
   <g id="patch_2">
    <path d="M 39.3408 87.97608 
L 111.6576 87.97608 
Q 121.7016 87.97608 121.7016 84.71898 
L 121.7016 59.96502 
Q 121.7016 56.70792 111.6576 56.70792 
L 39.3408 56.70792 
Q 29.2968 56.70792 29.2968 59.96502 
L 29.2968 84.71898 
Q 29.2968 87.97608 39.3408 87.97608 
z
" clip-path="url(#p5574e7972f)" style="fill: #dcebfa; stroke: #0f4d92; stroke-width: 0.9; stroke-linejoin: miter"/>
   </g>
   <g id="patch_3">
    <path d="M 171.9216 87.97608 
L 244.2384 87.97608 
Q 254.2824 87.97608 254.2824 84.71898 
L 254.2824 59.96502 
Q 254.2824 56.70792 244.2384 56.70792 
L 171.9216 56.70792 
Q 161.8776 56.70792 161.8776 59.96502 
L 161.8776 84.71898 
Q 161.8776 87.97608 171.9216 87.97608 
z
" clip-path="url(#p5574e7972f)" style="fill: #fff3c4; stroke: #b8860b; stroke-width: 0.9; stroke-linejoin: miter"/>
   </g>
   <g id="patch_4">
    <path d="M 304.5024 87.97608 
L 376.8192 87.97608 
Q 386.8632 87.97608 386.8632 84.71898 
L 386.8632 59.96502 
Q 386.8632 56.70792 376.8192 56.70792 
L 304.5024 56.70792 
Q 294.4584 56.70792 294.4584 59.96502 
L 294.4584 84.71898 
Q 294.4584 87.97608 304.5024 87.97608 
z
" clip-path="url(#p5574e7972f)" style="fill: #f8d9d6; stroke: #b64342; stroke-width: 0.9; stroke-linejoin: miter"/>
   </g>
   <g id="patch_5">
    <path d="M 115.667844 72.342 
Q 141.78879 72.342 167.015309 72.342 
" clip-path="url(#p5574e7972f)" style="fill: none; stroke: #374151; stroke-width: 0.8; stroke-linecap: round"/>
    <path d="M 163.015309 70.342 
L 167.015309 72.342 
L 163.015309 74.342 
z
" clip-path="url(#p5574e7972f)" style="fill: #374151; stroke: #374151; stroke-width: 0.8; stroke-linecap: round"/>
   </g>
   <g id="patch_6">
    <path d="M 248.248644 72.342 
Q 274.36959 72.342 299.596109 72.342 
" clip-path="url(#p5574e7972f)" style="fill: none; stroke: #374151; stroke-width: 0.8; stroke-linecap: round"/>
    <path d="M 295.596109 70.342 
L 299.596109 72.342 
L 295.596109 74.342 
z
" clip-path="url(#p5574e7972f)" style="fill: #374151; stroke: #374151; stroke-width: 0.8; stroke-linecap: round"/>
   </g>
   <g id="patch_7">
    <path d="M 109.599144 54.365126 
Q 224.148059 31.840575 337.819351 54.191639 
" clip-path="url(#p5574e7972f)" style="fill: none; stroke: #374151; stroke-width: 0.8; stroke-linecap: round"/>
    <path d="M 334.280374 51.457477 
L 337.819351 54.191639 
L 333.508635 55.382324 
z
" clip-path="url(#p5574e7972f)" style="fill: #374151; stroke: #374151; stroke-width: 0.8; stroke-linecap: round"/>
   </g>
   <g id="patch_8">
    <path d="M 39.3408 121.589352 
L 376.8192 121.589352 
Q 384.05088 121.589352 384.05088 119.24424 
L 384.05088 98.3988 
Q 384.05088 96.053688 376.8192 96.053688 
L 39.3408 96.053688 
Q 32.10912 96.053688 32.10912 98.3988 
L 32.10912 119.24424 
Q 32.10912 121.589352 39.3408 121.589352 
z
" clip-path="url(#p5574e7972f)" style="fill: #f8fafc; stroke: #94a3b8; stroke-width: 0.8; stroke-linejoin: miter"/>
   </g>
   <g id="text_1">
    <text style="font-weight: 700; font-size: 9px; font-family: 'Arial', 'Helvetica', 'DejaVu Sans', sans-serif; text-anchor: start" x="15.2352" y="21.569286" transform="rotate(-0 15.2352 21.569286)">a</text>
   </g>
   <g id="text_2">
    <text style="font-weight: 700; font-size: 9px; font-family: 'Arial', 'Helvetica', 'DejaVu Sans', sans-serif; text-anchor: start" x="35.3232" y="21.569286" transform="rotate(-0 35.3232 21.569286)">Cohort Markov structure</text>
   </g>
   <g id="text_3">
    <text style="font-size: 6.7px; font-family: 'Arial', 'Helvetica', 'DejaVu Sans', sans-serif; text-anchor: start; fill: #4d4d4d" x="35.3232" y="29.34828" transform="rotate(-0 35.3232 29.34828)">Annual cycles; type 2 diabetes is the modeled complication; death is absorbing.</text>
   </g>
   <g id="text_4">
    <text style="font-weight: 700; font-size: 7.9px; font-family: 'Arial', 'Helvetica', 'DejaVu Sans', sans-serif; text-anchor: middle" x="75.4992" y="72.30189" transform="rotate(-0 75.4992 72.30189)">No diabetes</text>
   </g>
   <g id="text_5">
    <text style="font-size: 6.1px; font-family: 'Arial', 'Helvetica', 'DejaVu Sans', sans-serif; text-anchor: middle; fill: #4d4d4d" x="75.4992" y="78.610778" transform="rotate(-0 75.4992 78.610778)">starting cohort</text>
   </g>
   <g id="text_6">
    <text style="font-weight: 700; font-size: 7.9px; font-family: 'Arial', 'Helvetica', 'DejaVu Sans', sans-serif; text-anchor: middle" x="208.08" y="72.301812" transform="rotate(-0 208.08 72.301812)">Type 2 diabetes</text>
   </g>
   <g id="text_7">
    <text style="font-size: 6.1px; font-family: 'Arial', 'Helvetica', 'DejaVu Sans', sans-serif; text-anchor: middle; fill: #4d4d4d" x="208.08" y="78.610837" transform="rotate(-0 208.08 78.610837)">chronic state</text>
   </g>
   <g id="text_8">
    <text style="font-weight: 700; font-size: 7.9px; font-family: 'Arial', 'Helvetica', 'DejaVu Sans', sans-serif; text-anchor: middle" x="340.6608" y="72.30189" transform="rotate(-0 340.6608 72.30189)">Death</text>
   </g>
   <g id="text_9">
    <text style="font-size: 6.1px; font-family: 'Arial', 'Helvetica', 'DejaVu Sans', sans-serif; text-anchor: middle; fill: #4d4d4d" x="340.6608" y="78.610778" transform="rotate(-0 340.6608 78.610778)">absorbing state</text>
   </g>
   <g id="text_10">
    <g id="patch_9">
     <path d="M 127.831991 66.798652 
L 155.747209 66.798652 
L 155.747209 60.195488 
L 127.831991 60.195488 
z
" style="fill: #ffffff"/>
    </g>
    <text style="font-size: 5.8px; font-family: 'Arial', 'Helvetica', 'DejaVu Sans', sans-serif; text-anchor: middle; fill: #4d4d4d" x="141.7896" y="64.998047" transform="rotate(-0 141.7896 64.998047)">T2D onset</text>
   </g>
   <g id="text_11">
    <g id="patch_10">
     <path d="M 262.833838 66.798652 
L 285.906963 66.798652 
L 285.906963 60.195375 
L 262.833838 60.195375 
z
" style="fill: #ffffff"/>
    </g>
    <text style="font-size: 5.8px; font-family: 'Arial', 'Helvetica', 'DejaVu Sans', sans-serif; text-anchor: middle; fill: #4d4d4d" x="274.3704" y="64.997933" transform="rotate(-0 274.3704 64.997933)">mortality</text>
   </g>
   <g id="text_12">
    <g id="patch_11">
     <path d="M 196.653869 50.1223 
L 251.646931 50.1223 
L 251.646931 43.519023 
L 196.653869 43.519023 
z
" style="fill: #ffffff"/>
    </g>
    <text style="font-size: 5.8px; font-family: 'Arial', 'Helvetica', 'DejaVu Sans', sans-serif; text-anchor: middle; fill: #4d4d4d" x="224.1504" y="48.321581" transform="rotate(-0 224.1504 48.321581)">background mortality</text>
   </g>
   <g id="text_13">
    <text style="font-weight: 700; font-size: 7px; font-family: 'Arial', 'Helvetica', 'DejaVu Sans', sans-serif; text-anchor: start; fill: #111827" x="49.3848" y="108.027363" transform="rotate(-0 49.3848 108.027363)">Intervention effects enter as model modifiers</text>
   </g>
   <g id="text_14">
    <text style="font-size: 6.25px; font-family: 'Arial', 'Helvetica', 'DejaVu Sans', sans-serif; text-anchor: start; fill: #4d4d4d" x="49.3848" y="113.695991" transform="rotate(-0 49.3848 113.695991)">Semaglutide modifies cost, utility, and diabetes incidence through the retained-effect multiplier.</text>
   </g>
   <g id="text_15">
    <text style="font-size: 6.25px; font-family: 'Arial', 'Helvetica', 'DejaVu Sans', sans-serif; text-anchor: start; fill: #4d4d4d" x="49.3848" y="118.255992" transform="rotate(-0 49.3848 118.255992)">The intervention is not represented as a separate health state.</text>
   </g>
  </g>
 </g>
 <defs>
  <clipPath id="p5574e7972f">
   <rect x="7.2" y="7.2" width="401.76" height="130.284"/>
  </clipPath>
 </defs>
</svg>
